<?xml version="1.0" encoding="utf-8"?>
<!-- Generator: Adobe Illustrator 25.2.0, SVG Export Plug-In . SVG Version: 6.00 Build 0)  -->
<svg version="1.1" id="Calque_1" xmlns="http://www.w3.org/2000/svg" xmlns:xlink="http://www.w3.org/1999/xlink" x="0px" y="0px"
	 viewBox="0 0 484.51 351.41" style="enable-background:new 0 0 484.51 351.41;" xml:space="preserve">
<style type="text/css">
	.st0{opacity:0.2;fill:#008B93;enable-background:new    ;}
	.st1{opacity:0.3;fill:#008B93;enable-background:new    ;}
	.st2{opacity:0.6;fill:#008B93;enable-background:new    ;}
	.st3{opacity:0.7;fill:#008B93;enable-background:new    ;}
	.st4{opacity:0.8;fill:#008B93;enable-background:new    ;}
	.st5{fill:#008B93;}
	.st6{opacity:0.9;fill:#008B93;enable-background:new    ;}
</style>
<g id="pixels_bas_gauche" transform="translate(-472 -1058.947)">
	<g id="_20_" transform="translate(472 1316.635)">
		<rect id="Rectangle_202" x="64.59" y="26.92" class="st0" width="26.18" height="26.18"/>
	</g>
	<g id="_30_" transform="translate(524.362 1238.09)">
		<rect id="Rectangle_203" x="64.59" y="26.92" class="st1" width="26.18" height="26.18"/>
	</g>
	<g id="_30_2" transform="translate(550.547 1316.638)">
		<rect id="Rectangle_203-2" x="64.59" y="26.92" class="st1" width="26.18" height="26.18"/>
	</g>
	<rect id="Rectangle_208" x="588.95" y="1317.37" class="st2" width="26.19" height="26.18"/>
	<rect id="Rectangle_210" x="536.59" y="1369.74" class="st3" width="26.18" height="26.18"/>
	<rect id="Rectangle_213" x="536.59" y="1291.19" class="st4" width="26.18" height="26.18"/>
	<rect id="Rectangle_216" x="562.77" y="1369.74" class="st5" width="26.18" height="26.18"/>
	<rect id="Rectangle_226" x="562.77" y="1317.38" class="st5" width="26.18" height="26.18"/>
</g>
<g id="pixels_haut_droit" transform="translate(-471 -1059.775)">
	<g id="_20_2" transform="translate(739.594 1085.956)">
		<rect id="Rectangle_202-2" x="64.59" y="26.92" class="st0" width="26.18" height="26.18"/>
	</g>
	<g id="_20_3" transform="translate(765.7 1138.233)">
		<rect id="Rectangle_202-3" x="64.59" y="26.92" class="st0" width="26.18" height="26.18"/>
	</g>
	<g id="_20_4" transform="translate(661.2 1059.775)">
		<rect id="Rectangle_202-4" x="64.59" y="26.92" class="st0" width="26.18" height="26.18"/>
	</g>
	<g id="_20_5" transform="translate(687.381 1112.094)">
		<rect id="Rectangle_202-5" x="64.59" y="26.92" class="st0" width="26.18" height="26.18"/>
	</g>
	<g id="_30_3" transform="translate(791.813 1059.819)">
		<rect id="Rectangle_203-3" x="64.59" y="26.92" class="st1" width="26.18" height="26.18"/>
	</g>
	<rect id="Rectangle_209" x="856.4" y="1165.15" class="st2" width="26.18" height="26.18"/>
	<rect id="Rectangle_210-2" x="804.18" y="1191.29" class="st3" width="26.18" height="26.18"/>
	<rect id="Rectangle_211" x="856.4" y="1112.88" class="st3" width="26.18" height="26.18"/>
	<rect id="Rectangle_212" x="778.08" y="1086.74" class="st3" width="26.18" height="26.18"/>
	<g id="_90_" transform="translate(765.706 1059.819)">
		<rect id="Rectangle_215" x="64.59" y="26.92" class="st6" width="26.18" height="26.18"/>
	</g>
	<rect id="Rectangle_224" x="804.19" y="1086.74" class="st5" width="26.18" height="26.18"/>
	<rect id="Rectangle_228" x="778.07" y="1139.02" class="st5" width="26.19" height="26.18"/>
	<rect id="Rectangle_229" x="830.29" y="1139.02" class="st5" width="26.19" height="26.18"/>
</g>
</svg>
