<?xml version="1.0" encoding="utf-8"?>
<!-- Generator: Adobe Illustrator 25.2.0, SVG Export Plug-In . SVG Version: 6.00 Build 0)  -->
<svg version="1.1" id="Calque_1" xmlns="http://www.w3.org/2000/svg" xmlns:xlink="http://www.w3.org/1999/xlink" x="0px" y="0px"
	 viewBox="0 0 492.92 440" style="enable-background:new 0 0 492.92 440;" xml:space="preserve">
<style type="text/css">
	.st0{opacity:0.2;fill:#008B93;enable-background:new    ;}
	.st1{opacity:0.3;fill:#008B93;enable-background:new    ;}
	.st2{opacity:0.6;fill:#008B93;enable-background:new    ;}
	.st3{opacity:0.7;fill:#008B93;enable-background:new    ;}
	.st4{opacity:0.8;fill:#008B93;enable-background:new    ;}
	.st5{fill:#008B93;}
	.st6{opacity:0.9;fill:#008B93;enable-background:new    ;}
</style>
<g id="pixels_bas_gauche" transform="translate(0 254.223)">
	<g id="_20_" transform="translate(0 111.465)">
		<rect id="Rectangle_202" y="0" class="st0" width="37.15" height="37.15"/>
	</g>
	<g id="_30_" transform="translate(74.308)">
		<rect id="Rectangle_203" x="0" y="0" class="st1" width="37.15" height="37.15"/>
	</g>
	<g id="_30_2" transform="translate(111.467 111.469)">
		<rect id="Rectangle_203-2" x="0" y="0" class="st1" width="37.15" height="37.15"/>
	</g>
	<rect id="Rectangle_208" x="74.31" y="74.31" class="st2" width="37.16" height="37.16"/>
	<rect id="Rectangle_210" x="0" y="148.62" class="st3" width="37.15" height="37.16"/>
	<rect id="Rectangle_213" x="0" y="37.16" class="st4" width="37.15" height="37.15"/>
	<rect id="Rectangle_216" x="37.15" y="148.62" class="st5" width="37.16" height="37.16"/>
	<rect id="Rectangle_226" x="37.16" y="74.31" class="st5" width="37.15" height="37.16"/>
</g>
<g id="pixels_haut_droit" transform="translate(269.915)">
	<g id="_20_2" transform="translate(111.548 37.154)">
		<rect id="Rectangle_202-2" x="0" y="0" class="st0" width="37.15" height="37.15"/>
	</g>
	<g id="_20_3" transform="translate(148.695 111.34)">
		<rect id="Rectangle_202-3" x="0" y="0" class="st0" width="37.15" height="37.15"/>
	</g>
	<g id="_20_4" transform="translate(0 0)">
		<rect id="Rectangle_202-4" x="0" y="0" class="st0" width="37.15" height="37.15"/>
	</g>
	<g id="_20_5" transform="translate(37.253 74.247)">
		<rect id="Rectangle_202-5" x="0" y="0" class="st0" width="37.15" height="37.15"/>
	</g>
	<g id="_30_3" transform="translate(185.851 0.062)">
		<rect id="Rectangle_203-3" x="0" y="0" class="st1" width="37.15" height="37.15"/>
	</g>
	<rect id="Rectangle_209" x="185.85" y="111.34" class="st2" width="37.15" height="37.15"/>
	<rect id="Rectangle_210-2" x="111.55" y="148.43" class="st3" width="37.15" height="37.16"/>
	<rect id="Rectangle_211" x="185.85" y="37.15" class="st3" width="37.15" height="37.15"/>
	<rect id="Rectangle_212" x="74.4" y="0.06" class="st3" width="37.15" height="37.15"/>
	<g id="_90_" transform="translate(148.703 0.062)">
		<rect id="Rectangle_215" x="0" y="0" class="st6" width="37.15" height="37.15"/>
	</g>
	<rect id="Rectangle_224" x="111.55" y="0.06" class="st5" width="37.16" height="37.15"/>
	<rect id="Rectangle_228" x="74.39" y="74.25" class="st5" width="37.16" height="37.15"/>
	<rect id="Rectangle_229" x="148.7" y="74.25" class="st5" width="37.16" height="37.15"/>
</g>
</svg>
